<svg xmlns="http://www.w3.org/2000/svg" viewBox="0 0 248.12 189.92"><defs><style>.a{fill:#fff;}</style></defs><path class="a" d="M189.52,58.6a65.86,65.86,0,0,0-130.92,0,65.86,65.86,0,0,0,7.26,131.32h58.2a36.76,36.76,0,0,0,0-73.52,21.45,21.45,0,1,1,15.2-36.57A7.65,7.65,0,1,0,150.11,69a36.76,36.76,0,1,0-26.05,62.68,21.45,21.45,0,0,1,0,42.9H65.86a50.55,50.55,0,0,1,0-101.1,7.66,7.66,0,0,0,7.65-7.65,50.55,50.55,0,0,1,101.1,0,7.65,7.65,0,0,0,7.65,7.65,50.55,50.55,0,1,1,0,101.1,7.66,7.66,0,0,0,0,15.31A65.86,65.86,0,0,0,189.52,58.6Z"/><path class="a" d="M189.52,58.6a65.86,65.86,0,0,0-130.92,0,65.86,65.86,0,0,0,7.26,131.32h58.2a36.76,36.76,0,0,0,0-73.52,21.45,21.45,0,1,1,15.2-36.57A7.65,7.65,0,1,0,150.11,69a36.76,36.76,0,1,0-26.05,62.68,21.45,21.45,0,0,1,0,42.9H65.86a50.55,50.55,0,0,1,0-101.1,7.66,7.66,0,0,0,7.65-7.65,50.55,50.55,0,0,1,101.1,0,7.65,7.65,0,0,0,7.65,7.65,50.55,50.55,0,1,1,0,101.1,7.66,7.66,0,0,0,0,15.31A65.86,65.86,0,0,0,189.52,58.6Z"/></svg>